# xmcd
#
# Track frame offsets:
#	150
#	26234
#	47654
#	69893
#	92341
#	122795
#	156707
#	173336
#	192880
#	217299
#	239104
#
# Disc length: 3607 seconds
#
# Revision: 0
# Processed by: cddbd v1.5.1PL0 Copyright (c) Steve Scherf et al.
# Submitted via: dBpowerAMP V4.0
#
DISCID=9c0e150b
DTITLE=Blue Sun - Rise Up
DYEAR=2003
DGENRE=Blues
TTITLE0=Rain
TTITLE1=Damned If I Do
TTITLE2=Heartbreak Tonight
TTITLE3=Your Fool
TTITLE4=Third World Lullaby
TTITLE5=Another Chance For Love
TTITLE6=Don't Turn Your Back On Love
TTITLE7=Mr. Know It All
TTITLE8=If Love's So Good
TTITLE9=Urban Blues
TTITLE10=One Track Mind
EXTD=
EXTT0=
EXTT1=
EXTT2=
EXTT3=
EXTT4=
EXTT5=
EXTT6=
EXTT7=
EXTT8=
EXTT9=
EXTT10=
PLAYORDER=
